<?xml version="1.0" standalone="no"?>
<!DOCTYPE svg PUBLIC "-//W3C//DTD SVG 20010904//EN"
 "http://www.w3.org/TR/2001/REC-SVG-20010904/DTD/svg10.dtd">
<svg version="1.0" xmlns="http://www.w3.org/2000/svg"
 width="163.000000pt" height="869.000000pt" viewBox="0 0 163.000000 869.000000"
 preserveAspectRatio="xMidYMid meet">

<g transform="translate(0.000000,869.000000) scale(0.100000,-0.100000)"
fill="#000000" stroke="none">
<path d="M655 8330 c-280 -6 -298 -10 -364 -86 -44 -50 -53 -77 -53 -164 -1
-146 60 -220 202 -249 38 -7 158 -8 385 -3 309 7 333 9 370 29 89 47 125 113
125 228 0 175 -106 257 -325 253 -49 -1 -202 -4 -340 -8z m474 -194 c31 -28
28 -85 -5 -109 -23 -17 -53 -19 -355 -20 l-331 -2 -19 24 c-26 31 -24 73 4 99
27 25 85 29 453 28 214 -1 234 -3 253 -20z"/>
<path d="M1162 7778 c-5 -7 -12 -22 -14 -33 -3 -19 -14 -20 -223 -26 -121 -4
-315 -7 -432 -8 -116 0 -218 -4 -227 -7 -23 -9 -23 -159 0 -168 9 -3 211 -6
450 -6 l434 0 0 -74 c0 -63 -3 -75 -17 -80 -10 -2 -207 -7 -438 -11 -261 -4
-425 -11 -432 -17 -14 -12 -18 -125 -5 -146 11 -16 8 -16 552 -14 278 1 481 6
490 12 12 8 15 42 16 200 1 104 4 197 7 205 4 9 25 15 64 17 l58 3 3 68 c2 42
-2 74 -9 83 -16 19 -261 20 -277 2z"/>
<path d="M825 7131 c-106 -26 -164 -102 -171 -224 -2 -38 -7 -73 -10 -78 -3
-5 -85 -9 -182 -9 -97 0 -183 -4 -191 -9 -21 -14 -17 -142 5 -158 21 -16 1012
-6 1033 11 10 8 12 41 9 156 -3 130 -7 151 -28 195 -29 58 -83 103 -136 116
-46 10 -286 10 -329 0z m308 -189 c17 -19 26 -96 13 -110 -4 -4 -78 -7 -164
-7 l-157 0 -3 49 c-5 78 7 85 164 85 115 1 133 -1 147 -17z"/>
<path d="M681 6573 c-270 -2 -398 -7 -408 -14 -20 -17 -19 -417 1 -445 14 -18
35 -19 400 -27 212 -4 402 -11 423 -15 32 -6 41 -14 58 -50 19 -40 22 -42 65
-43 98 -3 114 9 104 81 -9 69 -50 129 -109 159 -58 30 -168 39 -536 40 -160 1
-228 4 -237 13 -13 13 -16 86 -4 104 5 8 136 13 436 16 348 5 430 8 437 19 11
17 12 130 1 146 -10 16 -158 20 -631 16z"/>
<path d="M675 5941 c-231 -6 -253 -8 -290 -28 -87 -47 -128 -119 -128 -223 0
-108 57 -196 150 -235 55 -23 709 -22 778 2 67 23 129 86 149 154 20 66 20 89
0 161 -20 68 -66 121 -133 151 -55 24 -148 27 -526 18z m459 -182 c62 -29 50
-123 -17 -133 -62 -10 -609 -14 -642 -5 -65 18 -69 115 -6 138 38 14 634 14
665 0z"/>
<path d="M1210 5394 c-47 -20 -96 -39 -110 -44 -26 -8 -90 -34 -125 -50 -55
-25 -155 -64 -193 -76 l-42 -13 -217 104 c-118 58 -221 105 -228 105 -7 0 -16
-7 -19 -16 -8 -20 -8 -102 0 -130 6 -22 51 -45 312 -159 40 -18 73 -36 73 -41
-1 -5 -83 -10 -183 -12 -100 -1 -186 -6 -191 -11 -11 -11 -15 -120 -5 -148 l8
-23 503 0 c589 0 547 -8 547 100 0 60 -3 71 -21 80 -13 7 -75 10 -172 9 -154
-3 -197 5 -197 35 0 8 12 17 28 20 15 4 98 35 186 69 174 67 176 69 176 153 0
49 -14 84 -33 84 -7 0 -50 -16 -97 -36z"/>
<path d="M303 4560 c-23 -9 -23 -11 -23 -218 0 -166 3 -212 14 -221 10 -8 151
-11 525 -9 442 3 513 5 521 18 11 17 12 372 1 410 -6 23 -12 25 -78 28 -94 4
-98 -3 -89 -145 5 -75 4 -108 -5 -119 -9 -11 -41 -14 -145 -14 l-134 0 0 98
c0 63 -4 102 -12 110 -7 7 -39 12 -73 12 -34 0 -66 -5 -73 -12 -8 -8 -12 -47
-12 -110 l0 -98 -134 0 -134 0 -3 129 c-2 71 -7 133 -12 137 -11 12 -110 15
-134 4z"/>
<path d="M605 4050 c-166 -6 -196 -13 -253 -56 -56 -43 -77 -96 -77 -195 0
-78 3 -90 30 -135 22 -35 46 -57 85 -79 l55 -30 350 0 c193 0 366 3 386 8 63
13 125 63 155 123 24 48 26 63 22 132 -5 88 -24 132 -76 179 -57 53 -113 63
-329 61 -103 -1 -260 -4 -348 -8z m542 -181 c35 -13 43 -25 43 -70 0 -65 -6
-66 -355 -69 -372 -3 -346 -5 -373 20 -42 40 -21 104 41 122 39 11 613 9 644
-3z"/>
<path d="M308 3499 c-16 -9 -18 -32 -18 -244 l0 -235 25 -16 c19 -12 36 -15
71 -9 75 11 74 10 74 85 0 42 5 71 13 77 6 5 199 10 432 12 266 2 425 7 433
13 18 16 16 142 -3 158 -12 10 -104 11 -433 6 -239 -4 -423 -3 -430 2 -8 6
-14 34 -16 76 -1 46 -7 70 -17 77 -19 12 -110 11 -131 -2z"/>
<path d="M447 2952 c-99 -35 -155 -108 -164 -212 -10 -109 45 -211 137 -254
44 -20 55 -21 403 -18 385 4 394 5 465 59 101 76 108 278 13 371 -71 69 -93
72 -471 71 -286 0 -342 -3 -383 -17z m713 -167 c53 -27 53 -103 0 -130 -24
-12 -82 -15 -345 -15 l-316 0 -24 25 c-30 29 -32 64 -6 96 19 24 21 24 273 29
139 3 284 7 321 8 45 1 78 -3 97 -13z"/>
<path d="M731 2403 c-278 -2 -408 -7 -418 -14 -18 -16 -19 -417 0 -441 10 -14
64 -18 402 -28 215 -6 406 -14 425 -18 27 -5 39 -16 56 -47 l20 -40 70 0 69 0
3 45 c7 87 -28 149 -103 189 -56 29 -188 40 -510 43 l-270 3 -3 61 -3 61 432
6 c297 5 436 10 445 18 17 14 19 121 4 150 -10 17 -21 19 -113 17 -56 -2 -284
-4 -506 -5z"/>
<path d="M488 1760 c-134 -23 -216 -151 -189 -296 21 -111 86 -175 199 -194
47 -7 162 -8 392 -2 302 7 328 9 365 29 87 46 125 115 125 227 0 85 -21 138
-73 183 -66 58 -104 63 -456 62 -174 -1 -337 -5 -363 -9z m711 -196 c27 -35
26 -57 -3 -91 l-24 -28 -329 -3 c-322 -3 -330 -2 -356 18 -37 29 -37 80 -1
109 26 20 38 21 360 21 l333 0 20 -26z"/>
<path d="M499 1200 c-61 -10 -107 -35 -145 -77 -42 -45 -58 -106 -52 -194 7
-91 40 -142 118 -181 47 -23 68 -28 137 -28 94 0 103 7 103 82 0 63 -9 70 -88
77 -83 8 -102 21 -102 70 0 65 28 81 138 81 99 0 132 -20 132 -79 0 -51 14
-61 85 -61 71 0 85 10 85 61 0 29 6 43 26 58 23 18 41 21 135 21 126 0 149
-12 149 -75 0 -52 -42 -75 -137 -75 -42 0 -75 -5 -79 -11 -10 -16 -6 -131 5
-142 5 -5 51 -9 102 -8 79 1 101 6 149 29 95 47 144 150 125 264 -23 138 -115
198 -305 198 -110 0 -185 -18 -221 -53 -37 -37 -51 -37 -92 -1 -55 46 -155 63
-268 44z"/>
</g>
</svg>
